<?xml version="1.0" encoding="UTF-8" standalone="no"?>
<!DOCTYPE svg PUBLIC "-//W3C//DTD SVG 1.1//EN"
 "http://www.w3.org/Graphics/SVG/1.1/DTD/svg11.dtd">
<!-- Generated by graphviz version 2.40.1 (20161225.0304)
 -->
<!-- Title: %3 Pages: 1 -->
<svg width="512pt" height="1692pt"
 viewBox="0.00 0.00 512.00 1692.00" xmlns="http://www.w3.org/2000/svg" xmlns:xlink="http://www.w3.org/1999/xlink">
<g id="graph0" class="graph" transform="scale(1 1) rotate(0) translate(4 1688)">
<title>%3</title>
<polygon fill="#ffffff" stroke="transparent" points="-4,4 -4,-1688 508,-1688 508,4 -4,4"/>
<!-- _1 -->
<g id="node1" class="node">
<title>_1</title>
<g id="a_node1"><a xlink:href="0001-record-architecture-decisions.html" xlink:title="1. Record architecture decisions">
<text text-anchor="middle" x="168" y="-1662.3" font-family="Times,serif" font-size="14.00" fill="#000000">1. Record architecture decisions</text>
</a>
</g>
</g>
<!-- _2 -->
<g id="node2" class="node">
<title>_2</title>
<g id="a_node2"><a xlink:href="0002-use-serverless-infra-components.html" xlink:title="2. Use serverless infra components">
<text text-anchor="middle" x="168" y="-1589.3" font-family="Times,serif" font-size="14.00" fill="#000000">2. Use serverless infra components</text>
</a>
</g>
</g>
<!-- _1&#45;&gt;_2 -->
<g id="edge1" class="edge">
<title>_1&#45;&gt;_2</title>
<path fill="none" stroke="#000000" stroke-dasharray="1,5" d="M168,-1647.9551C168,-1639.8828 168,-1630.1764 168,-1621.1817"/>
<polygon fill="#000000" stroke="#000000" points="171.5001,-1621.0903 168,-1611.0904 164.5001,-1621.0904 171.5001,-1621.0903"/>
</g>
<!-- _3 -->
<g id="node3" class="node">
<title>_3</title>
<g id="a_node3"><a xlink:href="0003-create-cloud-native-solutions.html" xlink:title="3. Create cloud native solutions">
<text text-anchor="middle" x="168" y="-1516.3" font-family="Times,serif" font-size="14.00" fill="#000000">3. Create cloud native solutions</text>
</a>
</g>
</g>
<!-- _2&#45;&gt;_3 -->
<g id="edge2" class="edge">
<title>_2&#45;&gt;_3</title>
<path fill="none" stroke="#000000" stroke-dasharray="1,5" d="M168,-1574.9551C168,-1566.8828 168,-1557.1764 168,-1548.1817"/>
<polygon fill="#000000" stroke="#000000" points="171.5001,-1548.0903 168,-1538.0904 164.5001,-1548.0904 171.5001,-1548.0903"/>
</g>
<!-- _4 -->
<g id="node4" class="node">
<title>_4</title>
<g id="a_node4"><a xlink:href="0004-create-software-defined-everything.html" xlink:title="4. Create software defined everything">
<text text-anchor="middle" x="168" y="-1443.3" font-family="Times,serif" font-size="14.00" fill="#000000">4. Create software defined everything</text>
</a>
</g>
</g>
<!-- _3&#45;&gt;_4 -->
<g id="edge3" class="edge">
<title>_3&#45;&gt;_4</title>
<path fill="none" stroke="#000000" stroke-dasharray="1,5" d="M168,-1501.9551C168,-1493.8828 168,-1484.1764 168,-1475.1817"/>
<polygon fill="#000000" stroke="#000000" points="171.5001,-1475.0903 168,-1465.0904 164.5001,-1475.0904 171.5001,-1475.0903"/>
</g>
<!-- _5 -->
<g id="node5" class="node">
<title>_5</title>
<g id="a_node5"><a xlink:href="0005-build-open-source-solutions.html" xlink:title="5. Build Open Source solutions">
<text text-anchor="middle" x="168" y="-1370.3" font-family="Times,serif" font-size="14.00" fill="#000000">5. Build Open Source solutions</text>
</a>
</g>
</g>
<!-- _4&#45;&gt;_5 -->
<g id="edge4" class="edge">
<title>_4&#45;&gt;_5</title>
<path fill="none" stroke="#000000" stroke-dasharray="1,5" d="M168,-1428.9551C168,-1420.8828 168,-1411.1764 168,-1402.1817"/>
<polygon fill="#000000" stroke="#000000" points="171.5001,-1402.0903 168,-1392.0904 164.5001,-1402.0904 171.5001,-1402.0903"/>
</g>
<!-- _6 -->
<g id="node6" class="node">
<title>_6</title>
<g id="a_node6"><a xlink:href="0006-implement-security-by-design.html" xlink:title="6. Implement Security by Design">
<text text-anchor="middle" x="168" y="-1297.3" font-family="Times,serif" font-size="14.00" fill="#000000">6. Implement Security by Design</text>
</a>
</g>
</g>
<!-- _5&#45;&gt;_6 -->
<g id="edge5" class="edge">
<title>_5&#45;&gt;_6</title>
<path fill="none" stroke="#000000" stroke-dasharray="1,5" d="M168,-1355.9551C168,-1347.8828 168,-1338.1764 168,-1329.1817"/>
<polygon fill="#000000" stroke="#000000" points="171.5001,-1329.0903 168,-1319.0904 164.5001,-1329.0904 171.5001,-1329.0903"/>
</g>
<!-- _7 -->
<g id="node7" class="node">
<title>_7</title>
<g id="a_node7"><a xlink:href="0007-solutions-are-data-integrated.html" xlink:title="7. Solutions are data integrated">
<text text-anchor="middle" x="168" y="-1224.3" font-family="Times,serif" font-size="14.00" fill="#000000">7. Solutions are data integrated</text>
</a>
</g>
</g>
<!-- _6&#45;&gt;_7 -->
<g id="edge6" class="edge">
<title>_6&#45;&gt;_7</title>
<path fill="none" stroke="#000000" stroke-dasharray="1,5" d="M168,-1282.9551C168,-1274.8828 168,-1265.1764 168,-1256.1817"/>
<polygon fill="#000000" stroke="#000000" points="171.5001,-1256.0903 168,-1246.0904 164.5001,-1256.0904 171.5001,-1256.0903"/>
</g>
<!-- _8 -->
<g id="node8" class="node">
<title>_8</title>
<g id="a_node8"><a xlink:href="0008-data-is-location-and-time-aware.html" xlink:title="8. Data is location and time aware">
<text text-anchor="middle" x="168" y="-1151.3" font-family="Times,serif" font-size="14.00" fill="#000000">8. Data is location and time aware</text>
</a>
</g>
</g>
<!-- _7&#45;&gt;_8 -->
<g id="edge7" class="edge">
<title>_7&#45;&gt;_8</title>
<path fill="none" stroke="#000000" stroke-dasharray="1,5" d="M168,-1209.9551C168,-1201.8828 168,-1192.1764 168,-1183.1817"/>
<polygon fill="#000000" stroke="#000000" points="171.5001,-1183.0903 168,-1173.0904 164.5001,-1183.0904 171.5001,-1183.0903"/>
</g>
<!-- _9 -->
<g id="node9" class="node">
<title>_9</title>
<g id="a_node9"><a xlink:href="0009-uri-identifies-data.html" xlink:title="9. URI identifies data">
<text text-anchor="middle" x="168" y="-1078.3" font-family="Times,serif" font-size="14.00" fill="#000000">9. URI identifies data</text>
</a>
</g>
</g>
<!-- _8&#45;&gt;_9 -->
<g id="edge8" class="edge">
<title>_8&#45;&gt;_9</title>
<path fill="none" stroke="#000000" stroke-dasharray="1,5" d="M168,-1136.9551C168,-1128.8828 168,-1119.1764 168,-1110.1817"/>
<polygon fill="#000000" stroke="#000000" points="171.5001,-1110.0903 168,-1100.0904 164.5001,-1110.0904 171.5001,-1110.0903"/>
</g>
<!-- _10 -->
<g id="node10" class="node">
<title>_10</title>
<g id="a_node10"><a xlink:href="0010-event-sourcing-captures-every-change-to-business-state.html" xlink:title="10. Event sourcing captures every change to business state">
<text text-anchor="middle" x="168" y="-1005.3" font-family="Times,serif" font-size="14.00" fill="#000000">10. Event sourcing captures every change to business state</text>
</a>
</g>
</g>
<!-- _9&#45;&gt;_10 -->
<g id="edge9" class="edge">
<title>_9&#45;&gt;_10</title>
<path fill="none" stroke="#000000" stroke-dasharray="1,5" d="M168,-1063.9551C168,-1055.8828 168,-1046.1764 168,-1037.1817"/>
<polygon fill="#000000" stroke="#000000" points="171.5001,-1037.0903 168,-1027.0904 164.5001,-1037.0904 171.5001,-1037.0903"/>
</g>
<!-- _11 -->
<g id="node11" class="node">
<title>_11</title>
<g id="a_node11"><a xlink:href="0011-cqrs-separates-read-and-write-responsibility.html" xlink:title="11. CQRS separates read and write responsibility">
<text text-anchor="middle" x="168" y="-932.3" font-family="Times,serif" font-size="14.00" fill="#000000">11. CQRS separates read and write responsibility</text>
</a>
</g>
</g>
<!-- _10&#45;&gt;_11 -->
<g id="edge10" class="edge">
<title>_10&#45;&gt;_11</title>
<path fill="none" stroke="#000000" stroke-dasharray="1,5" d="M168,-990.9551C168,-982.8828 168,-973.1764 168,-964.1817"/>
<polygon fill="#000000" stroke="#000000" points="171.5001,-964.0903 168,-954.0904 164.5001,-964.0904 171.5001,-964.0903"/>
</g>
<!-- _12 -->
<g id="node12" class="node">
<title>_12</title>
<g id="a_node12"><a xlink:href="0012-data-catalog-specifies-all-data-components.html" xlink:title="12. Data catalog specifies all data components">
<text text-anchor="middle" x="168" y="-859.3" font-family="Times,serif" font-size="14.00" fill="#000000">12. Data catalog specifies all data components</text>
</a>
</g>
</g>
<!-- _11&#45;&gt;_12 -->
<g id="edge11" class="edge">
<title>_11&#45;&gt;_12</title>
<path fill="none" stroke="#000000" stroke-dasharray="1,5" d="M168,-917.9551C168,-909.8828 168,-900.1764 168,-891.1817"/>
<polygon fill="#000000" stroke="#000000" points="171.5001,-891.0903 168,-881.0904 164.5001,-891.0904 171.5001,-891.0903"/>
</g>
<!-- _13 -->
<g id="node13" class="node">
<title>_13</title>
<g id="a_node13"><a xlink:href="0013-data-retention-defined-on-each-data-component.html" xlink:title="13. Data retention defined on each data component">
<text text-anchor="middle" x="168" y="-786.3" font-family="Times,serif" font-size="14.00" fill="#000000">13. Data retention defined on each data component</text>
</a>
</g>
</g>
<!-- _12&#45;&gt;_13 -->
<g id="edge12" class="edge">
<title>_12&#45;&gt;_13</title>
<path fill="none" stroke="#000000" stroke-dasharray="1,5" d="M168,-844.9551C168,-836.8828 168,-827.1764 168,-818.1817"/>
<polygon fill="#000000" stroke="#000000" points="171.5001,-818.0903 168,-808.0904 164.5001,-818.0904 171.5001,-818.0903"/>
</g>
<!-- _14 -->
<g id="node14" class="node">
<title>_14</title>
<g id="a_node14"><a xlink:href="0014-single-confidentiality-level-per-data-component.html" xlink:title="14. Single confidentiality level per data component">
<text text-anchor="middle" x="168" y="-713.3" font-family="Times,serif" font-size="14.00" fill="#000000">14. Single confidentiality level per data component</text>
</a>
</g>
</g>
<!-- _13&#45;&gt;_14 -->
<g id="edge13" class="edge">
<title>_13&#45;&gt;_14</title>
<path fill="none" stroke="#000000" stroke-dasharray="1,5" d="M168,-771.9551C168,-763.8828 168,-754.1764 168,-745.1817"/>
<polygon fill="#000000" stroke="#000000" points="171.5001,-745.0903 168,-735.0904 164.5001,-745.0904 171.5001,-745.0903"/>
</g>
<!-- _15 -->
<g id="node15" class="node">
<title>_15</title>
<g id="a_node15"><a xlink:href="0015-automatic-backup-of-each-data-component.html" xlink:title="15. Automatic backup of each data component">
<text text-anchor="middle" x="168" y="-640.3" font-family="Times,serif" font-size="14.00" fill="#000000">15. Automatic backup of each data component</text>
</a>
</g>
</g>
<!-- _14&#45;&gt;_15 -->
<g id="edge14" class="edge">
<title>_14&#45;&gt;_15</title>
<path fill="none" stroke="#000000" stroke-dasharray="1,5" d="M168,-698.9551C168,-690.8828 168,-681.1764 168,-672.1817"/>
<polygon fill="#000000" stroke="#000000" points="171.5001,-672.0903 168,-662.0904 164.5001,-672.0904 171.5001,-672.0903"/>
</g>
<!-- _16 -->
<g id="node16" class="node">
<title>_16</title>
<g id="a_node16"><a xlink:href="0016-pub-sub-implements-event-sourcing.html" xlink:title="16. Pub/Sub implements Event sourcing">
<text text-anchor="middle" x="168" y="-567.3" font-family="Times,serif" font-size="14.00" fill="#000000">16. Pub/Sub implements Event sourcing</text>
</a>
</g>
</g>
<!-- _15&#45;&gt;_16 -->
<g id="edge15" class="edge">
<title>_15&#45;&gt;_16</title>
<path fill="none" stroke="#000000" stroke-dasharray="1,5" d="M168,-625.9551C168,-617.8828 168,-608.1764 168,-599.1817"/>
<polygon fill="#000000" stroke="#000000" points="171.5001,-599.0903 168,-589.0904 164.5001,-599.0904 171.5001,-599.0903"/>
</g>
<!-- _17 -->
<g id="node17" class="node">
<title>_17</title>
<g id="a_node17"><a xlink:href="0017-ddd-defines-ubiquitous-language.html" xlink:title="17. DDD defines ubiquitous language">
<text text-anchor="middle" x="168" y="-494.3" font-family="Times,serif" font-size="14.00" fill="#000000">17. DDD defines ubiquitous language</text>
</a>
</g>
</g>
<!-- _16&#45;&gt;_17 -->
<g id="edge16" class="edge">
<title>_16&#45;&gt;_17</title>
<path fill="none" stroke="#000000" stroke-dasharray="1,5" d="M168,-552.9551C168,-544.8828 168,-535.1764 168,-526.1817"/>
<polygon fill="#000000" stroke="#000000" points="171.5001,-526.0903 168,-516.0904 164.5001,-526.0904 171.5001,-526.0903"/>
</g>
<!-- _18 -->
<g id="node18" class="node">
<title>_18</title>
<g id="a_node18"><a xlink:href="0018-single-writer-for-a-topic.html" xlink:title="18. Single writer for a topic">
<text text-anchor="middle" x="168" y="-407.3" font-family="Times,serif" font-size="14.00" fill="#000000">18. Single writer for a topic</text>
</a>
</g>
</g>
<!-- _17&#45;&gt;_18 -->
<g id="edge17" class="edge">
<title>_17&#45;&gt;_18</title>
<path fill="none" stroke="#000000" stroke-dasharray="1,5" d="M168,-479.9735C168,-468.1918 168,-452.5607 168,-439.1581"/>
<polygon fill="#000000" stroke="#000000" points="171.5001,-439.0033 168,-429.0034 164.5001,-439.0034 171.5001,-439.0033"/>
</g>
<!-- _18&#45;&gt;_16 -->
<g id="edge23" class="edge">
<title>_18&#45;&gt;_16</title>
<path fill="none" stroke="#000000" d="M181.4389,-429.049C190.585,-440.1098 203.6098,-453.6938 218,-462 245.8212,-478.0587 268.3161,-454.6141 288,-480 297.8042,-492.6443 296.6411,-502.5341 288,-516 278.9803,-530.0559 265.3716,-540.5663 250.5174,-548.4107"/>
<polygon fill="#000000" stroke="#000000" points="248.6089,-545.4462 241.1375,-552.9582 251.6627,-551.745 248.6089,-545.4462"/>
<text text-anchor="middle" x="327" y="-494.3" font-family="Times,serif" font-size="14.00" fill="#000000">Implements</text>
</g>
<!-- _19 -->
<g id="node19" class="node">
<title>_19</title>
<g id="a_node19"><a xlink:href="0019-single-schema-per-topic.html" xlink:title="19. Single schema per topic">
<text text-anchor="middle" x="168" y="-320.3" font-family="Times,serif" font-size="14.00" fill="#000000">19. Single schema per topic</text>
</a>
</g>
</g>
<!-- _18&#45;&gt;_19 -->
<g id="edge18" class="edge">
<title>_18&#45;&gt;_19</title>
<path fill="none" stroke="#000000" stroke-dasharray="1,5" d="M168,-392.9735C168,-381.1918 168,-365.5607 168,-352.1581"/>
<polygon fill="#000000" stroke="#000000" points="171.5001,-352.0033 168,-342.0034 164.5001,-352.0034 171.5001,-352.0033"/>
</g>
<!-- _19&#45;&gt;_16 -->
<g id="edge24" class="edge">
<title>_19&#45;&gt;_16</title>
<path fill="none" stroke="#000000" d="M187.1822,-342.0686C198.5763,-352.3415 213.5763,-365.0915 228,-375 241.7704,-384.4597 252.4719,-378.634 261,-393 269.1674,-406.7584 267.1229,-414.2179 261,-429 256.6704,-439.4525 247.3296,-436.5475 243,-447 240.4488,-453.1592 238.6466,-456.951 243,-462 278.4144,-503.0724 426.5566,-433.4729 364,-516 353.2181,-530.2239 320.4334,-541.7855 284.6866,-550.5714"/>
<polygon fill="#000000" stroke="#000000" points="283.4647,-547.2639 274.5414,-552.9758 285.079,-554.0753 283.4647,-547.2639"/>
<text text-anchor="middle" x="276" y="-450.8" font-family="Times,serif" font-size="14.00" fill="#000000">Implements</text>
</g>
<!-- _20 -->
<g id="node20" class="node">
<title>_20</title>
<g id="a_node20"><a xlink:href="0020-topic-messages-have-gobits.html" xlink:title="20. Topic messages have gobits">
<text text-anchor="middle" x="168" y="-233.3" font-family="Times,serif" font-size="14.00" fill="#000000">20. Topic messages have gobits</text>
</a>
</g>
</g>
<!-- _19&#45;&gt;_20 -->
<g id="edge19" class="edge">
<title>_19&#45;&gt;_20</title>
<path fill="none" stroke="#000000" stroke-dasharray="1,5" d="M168,-305.9735C168,-294.1918 168,-278.5607 168,-265.1581"/>
<polygon fill="#000000" stroke="#000000" points="171.5001,-265.0033 168,-255.0034 164.5001,-265.0034 171.5001,-265.0033"/>
</g>
<!-- _20&#45;&gt;_16 -->
<g id="edge25" class="edge">
<title>_20&#45;&gt;_16</title>
<path fill="none" stroke="#000000" d="M198.1744,-255.153C222.6332,-270.5854 254.1315,-292.3515 261,-306 271.8183,-327.4971 259.626,-336.0779 257,-360 256.2726,-366.6269 254.149,-368.9737 257,-375 260.9334,-383.3141 381.0666,-471.6859 385,-480 391.8425,-494.4631 393.2617,-502.298 385,-516 374.6424,-533.1781 337.3562,-545.4453 296.5418,-553.9691"/>
<polygon fill="#000000" stroke="#000000" points="295.7869,-550.5507 286.6696,-555.9476 297.1625,-557.4142 295.7869,-550.5507"/>
<text text-anchor="middle" x="355" y="-407.3" font-family="Times,serif" font-size="14.00" fill="#000000">Implements</text>
</g>
<!-- _21 -->
<g id="node21" class="node">
<title>_21</title>
<g id="a_node21"><a xlink:href="0021-messages-are-in-json-format.html" xlink:title="21. Messages are in JSON format">
<text text-anchor="middle" x="168" y="-160.3" font-family="Times,serif" font-size="14.00" fill="#000000">21. Messages are in JSON format</text>
</a>
</g>
</g>
<!-- _20&#45;&gt;_21 -->
<g id="edge20" class="edge">
<title>_20&#45;&gt;_21</title>
<path fill="none" stroke="#000000" stroke-dasharray="1,5" d="M168,-218.9551C168,-210.8828 168,-201.1764 168,-192.1817"/>
<polygon fill="#000000" stroke="#000000" points="171.5001,-192.0903 168,-182.0904 164.5001,-192.0904 171.5001,-192.0903"/>
</g>
<!-- _21&#45;&gt;_16 -->
<g id="edge26" class="edge">
<title>_21&#45;&gt;_16</title>
<path fill="none" stroke="#000000" d="M226.9515,-182.0134C244.6653,-190.3913 262.2344,-202.313 273,-219 277.7062,-226.2947 276.1907,-368.5491 282,-375 315.1509,-411.8123 358.0211,-356.9506 392,-393 409.2507,-411.3019 413.7171,-490.9558 401,-516 390.5029,-536.6722 344.9039,-549.7722 296.7912,-557.9738"/>
<polygon fill="#000000" stroke="#000000" points="296.1281,-554.5357 286.8221,-559.6001 297.2552,-561.4443 296.1281,-554.5357"/>
<text text-anchor="middle" x="315" y="-363.8" font-family="Times,serif" font-size="14.00" fill="#000000">Implements</text>
</g>
<!-- _22 -->
<g id="node22" class="node">
<title>_22</title>
<g id="a_node22"><a xlink:href="0022-locations-are-specified-in-geojson.html" xlink:title="22. Locations are specified in GeoJSON">
<text text-anchor="middle" x="168" y="-87.3" font-family="Times,serif" font-size="14.00" fill="#000000">22. Locations are specified in GeoJSON</text>
</a>
</g>
</g>
<!-- _21&#45;&gt;_22 -->
<g id="edge21" class="edge">
<title>_21&#45;&gt;_22</title>
<path fill="none" stroke="#000000" stroke-dasharray="1,5" d="M168,-145.9551C168,-137.8828 168,-128.1764 168,-119.1817"/>
<polygon fill="#000000" stroke="#000000" points="171.5001,-119.0903 168,-109.0904 164.5001,-119.0904 171.5001,-119.0903"/>
</g>
<!-- _22&#45;&gt;_16 -->
<g id="edge27" class="edge">
<title>_22&#45;&gt;_16</title>
<path fill="none" stroke="#000000" d="M222.9411,-109.122C242.3821,-117.7631 263.0993,-129.8256 278,-146 289.5194,-158.5041 326.7413,-273.1392 335,-288 349.0555,-313.2918 401.2451,-366.138 412,-393 432.3433,-443.8105 442.7736,-467.1961 418,-516 406.1171,-539.4093 351.9545,-552.9259 297.0682,-560.6949"/>
<polygon fill="#000000" stroke="#000000" points="296.2625,-557.2719 286.8214,-562.0798 297.2001,-564.2088 296.2625,-557.2719"/>
<text text-anchor="middle" x="409" y="-320.3" font-family="Times,serif" font-size="14.00" fill="#000000">Implements</text>
</g>
<!-- _23 -->
<g id="node23" class="node">
<title>_23</title>
<g id="a_node23"><a xlink:href="0023-iso-8601-to-specify-date-and-time-with-timezone.html" xlink:title="23. ISO&#45;8601 to specify date and time with timezone">
<text text-anchor="middle" x="168" y="-14.3" font-family="Times,serif" font-size="14.00" fill="#000000">23. ISO&#45;8601 to specify date and time with timezone</text>
</a>
</g>
</g>
<!-- _22&#45;&gt;_23 -->
<g id="edge22" class="edge">
<title>_22&#45;&gt;_23</title>
<path fill="none" stroke="#000000" stroke-dasharray="1,5" d="M168,-72.9551C168,-64.8828 168,-55.1764 168,-46.1817"/>
<polygon fill="#000000" stroke="#000000" points="171.5001,-46.0903 168,-36.0904 164.5001,-46.0904 171.5001,-46.0903"/>
</g>
<!-- _23&#45;&gt;_16 -->
<g id="edge28" class="edge">
<title>_23&#45;&gt;_16</title>
<path fill="none" stroke="#000000" d="M229.0266,-36.0119C251.4452,-44.6871 275.9728,-56.8015 295,-73 388.5954,-152.6809 409.0843,-188.144 444,-306 473.7344,-406.3666 448.31,-410.7175 445,-462 443.4412,-486.1506 450.5099,-495.2833 438,-516 430.415,-528.5609 424.6259,-529.5554 411,-535 389.6478,-543.5319 343.1704,-551.2634 296.5221,-557.3551"/>
<polygon fill="#000000" stroke="#000000" points="296.0483,-553.8871 286.5742,-558.6298 296.938,-560.8303 296.0483,-553.8871"/>
<text text-anchor="middle" x="471" y="-276.8" font-family="Times,serif" font-size="14.00" fill="#000000">Implements</text>
</g>
</g>
</svg>
